<svg width="24" height="24" viewBox="0 0 24 24" fill="none" xmlns="http://www.w3.org/2000/svg">
<path d="M12 12L6.3 7.725C6.20738 7.65464 6.13217 7.56395 6.08016 7.45992C6.02814 7.35589 6.00072 7.24131 6 7.125V3.75C6 3.55109 6.07902 3.36032 6.21967 3.21967C6.36032 3.07902 6.55109 3 6.75 3H17.25C17.4489 3 17.6397 3.07902 17.7803 3.21967C17.921 3.36032 18 3.55109 18 3.75V7.0875C17.9993 7.20381 17.9719 7.31839 17.9198 7.42242C17.8678 7.52645 17.7926 7.61714 17.7 7.6875L12 12Z" stroke="#8B83E2" stroke-linecap="round" stroke-linejoin="round"/>
<path d="M12 12L6.3 16.275C6.20738 16.3454 6.13217 16.436 6.08016 16.5401C6.02814 16.6441 6.00072 16.7587 6 16.875V20.25C6 20.4489 6.07902 20.6397 6.21967 20.7803C6.36032 20.921 6.55109 21 6.75 21H17.25C17.4489 21 17.6397 20.921 17.7803 20.7803C17.921 20.6397 18 20.4489 18 20.25V16.9125C17.9993 16.7962 17.9719 16.6816 17.9198 16.5776C17.8678 16.4735 17.7926 16.3829 17.7 16.3125L12 12Z" stroke="#8B83E2" stroke-linecap="round" stroke-linejoin="round"/>
</svg>
