<svg width="40" height="40" viewBox="0 0 40 40" fill="none" xmlns="http://www.w3.org/2000/svg">
<path d="M20 33.75C20 33.75 4.375 25 4.375 14.375C4.375 12.4967 5.02577 10.6764 6.2166 9.22385C7.40742 7.77128 9.06473 6.77616 10.9066 6.40779C12.7484 6.03943 14.6609 6.32058 16.3189 7.2034C17.9768 8.08623 19.2776 9.5162 20 11.25C20.7224 9.5162 22.0232 8.08623 23.6811 7.2034C25.3391 6.32058 27.2516 6.03943 29.0934 6.40779C30.9353 6.77616 32.5926 7.77128 33.7834 9.22385C34.9742 10.6764 35.625 12.4967 35.625 14.375C35.625 25 20 33.75 20 33.75Z" fill="#6358D8"/>
</svg>
