<svg width="1290" height="1290" viewBox="0 0 1290 1290" fill="none" xmlns="http://www.w3.org/2000/svg">
<path d="M649.928 406.337C646.755 381.337 656.817 359.445 672.413 357.459C688.009 355.485 703.231 374.126 706.404 399.139C709.603 424.139 700.38 439.193 684.784 441.18C669.188 443.166 653.114 431.337 649.928 406.337Z" fill="black"/>
<path d="M1010.33 552.275C984.554 545.812 1092.09 412.503 1092.09 412.503C1092.09 412.503 971.125 507.641 961.024 496.018C950.95 484.369 1011.44 404.737 1011.44 404.737C1011.44 404.737 396.043 816.97 342.702 443.592C314.322 244.816 566.749 156.27 642.91 378.847C653.85 410.839 633.739 308.49 649.631 293.423C669.175 274.886 692.369 363.315 692.369 363.315C692.369 363.315 688.809 64.3322 541 35.849C432.395 14.951 192.442 204.439 166.681 563.936C148.995 810.778 322.242 923.098 503.062 944.164L466.438 1139.43L507.331 1164.62L548.044 947.505C566.542 948.15 584.938 947.879 603.088 946.718L609.628 1227.63L655.127 1255.7L647.8 942.061C669.343 938.901 690.253 934.54 710.107 928.942C974.053 854.612 1124.57 474.604 1124.57 474.604C1124.57 474.604 1036.08 558.75 1010.33 552.275ZM555.823 93.7184C564.904 93.7184 572.231 101.51 572.231 111.108C572.231 120.705 564.904 128.523 555.823 128.523C546.78 128.523 539.44 120.718 539.44 111.108C539.44 101.497 546.78 93.7184 555.823 93.7184Z" fill="black"/>
<path d="M597.614 900.386C842.614 852.886 860.114 728.218 842.614 673.885C752.114 642.882 471.114 614.884 477.114 647.382C483.133 679.985 769.114 686.379 797.114 714.382C832.314 766.382 727.614 748.886 673.114 732.386C465.914 663.186 437.78 681.886 449.614 699.886C445.214 720.686 622.947 764.049 717.614 786.382C760.614 815.882 704.28 815.552 681.614 812.386L550.114 779.386C414.514 714.151 398.947 738.205 408.114 758.386C429.314 780.786 564.947 817.386 630.114 832.886C667.314 909.286 560.947 858.052 503.114 822.886C392.314 769.552 383.28 795.663 392.614 815.386C476.614 884.186 564.28 900.719 597.614 900.386Z" fill="#C11C2A"/>
<path d="M882.788 632.535C789.188 633.735 806.788 578.035 827.288 550.035C839.688 527.235 866.789 522.535 878.789 523.035C921.989 543.435 897.289 558.535 878.789 561.035C830.789 575.535 863.289 605.535 918.789 598.035C947.289 632.535 907.122 633.535 882.788 632.535Z" fill="#E4A432"/>
<path d="M533.34 97.5086C537.298 88.2814 547.483 83.4182 557.146 86.1415L573.336 90.7039C584.06 93.7262 588.601 106.423 582.225 115.561C580.928 117.421 580.035 119.532 579.606 121.759L579.516 122.225C577.157 134.446 563.613 140.864 552.661 134.95L551.379 134.258C550.3 133.675 549.168 133.196 548 132.825L542.802 131.18C531.53 127.611 525.798 115.095 530.458 104.229L533.34 97.5086Z" fill="#C11C2A"/>
<path d="M923.64 552.716C925.274 550.606 927.392 548.92 929.814 547.799L956.713 535.354C967.51 530.359 980.254 535.836 984.06 547.107L985.506 551.39C989.341 562.748 982.392 574.905 970.659 577.364L950.69 581.549C947.688 582.178 944.582 582.108 941.612 581.345L932.664 579.047C921.063 576.067 916.306 562.184 923.64 552.716Z" fill="#C11C2A"/>
<path d="M265.344 452.143C277.348 446.369 291.763 449.978 299.632 460.727C310.979 476.229 303.443 498.293 284.983 503.615L272.97 507.078C266.038 509.076 259.858 513.09 255.213 518.61L244.622 531.195C231.964 546.238 208.242 544.268 198.237 527.345C191.089 515.252 193.808 499.756 204.645 490.819L228.485 471.159C230.969 469.11 233.693 467.368 236.595 465.972L265.344 452.143Z" fill="#26627E"/>
<path d="M277.704 528.732C287.328 523.512 298.67 522.465 309.087 525.835L309.775 526.058C323.974 532.575 326.582 551.643 314.655 561.734L307.775 567.555L278.618 591.785C276.382 593.643 274.354 595.74 272.573 598.038L258.189 616.588C256.916 618.23 255.809 619.995 254.883 621.856L247.548 636.611C240.322 651.145 220.222 652.755 210.775 639.558C201.937 627.977 200.647 612.312 207.472 599.442L211.842 591.202C213.127 588.779 214.658 586.494 216.41 584.384L233.801 563.448C235.072 561.917 236.457 560.483 237.942 559.158L259.804 539.653C262.11 537.596 264.646 535.814 267.362 534.34L277.704 528.732Z" fill="#C11C2A"/>
<path d="M342.132 579.816C348.227 576.948 355.054 576.014 361.696 577.139L373.628 579.162C378.169 579.932 381.928 583.119 383.43 587.473C384.999 592.024 383.837 597.071 380.437 600.477L357.113 623.842L324.982 651.245L316.015 659C313.018 661.592 310.422 664.616 308.314 667.971L300.495 680.413L292.879 695.005C289.996 700.529 285.863 705.303 280.808 708.947L267.685 718.406C259.713 725.744 246.833 719.948 247.038 709.114L247.399 689.973C247.462 686.645 248.334 683.382 249.941 680.467L265.764 651.755C267.042 649.436 268.546 647.25 270.256 645.228L289.843 622.072L317.175 597.258L330.812 586.354C333.258 584.398 335.926 582.736 338.76 581.403L342.132 579.816Z" fill="#A3C861"/>
<path d="M413.563 618.535C418.171 617.351 422.954 616.999 427.687 617.495L447.848 619.61C453.287 620.18 457.95 623.742 459.93 628.839C462.027 634.236 460.735 640.361 456.638 644.452L431.274 669.778L395.281 699.87L382.796 710.47C381.056 711.947 379.446 713.57 377.984 715.322L370.531 724.245L334.374 771.909C332.892 773.863 331.233 775.676 329.418 777.326L312.125 793.054C309.765 795.199 306.773 796.522 303.598 796.822C295.343 797.601 288.071 791.418 287.513 783.145L286.204 763.722C285.765 757.211 287.227 750.713 290.412 745.017L306.79 715.729C307.921 713.707 309.226 711.786 310.689 709.99L330.031 686.244L352.533 663.865L383.065 636.516L395.954 626.482C400.284 623.111 405.26 620.668 410.574 619.303L413.563 618.535Z" fill="#4D335A"/>
</svg>
